<?xml version="1.0" standalone="no"?>
<!DOCTYPE svg PUBLIC "-//W3C//DTD SVG 1.0//EN" "http://www.w3.org/TR/2001/REC-SVG-20010904/DTD/svg10.dtd">
<svg xmlns="http://www.w3.org/2000/svg" xmlns:xlink="http://www.w3.org/1999/xlink" id="body_1" width="714" height="455">

<g transform="matrix(1.0003613 0 0 1.000269 0 0)">
    <path d="M151.45532 107.12088L178.449 143.96976C 178.449 143.96976 201.46352 153.64746 228.3616 173.07887L228.3616 173.07887L221.92296 183.13008C 221.92296 183.13008 177.52583 164.95038 166.16422 157.269L166.16422 157.269L145.41728 124.743706L151.45532 107.12089L151.45532 107.12088z" stroke="none" fill="#A0616A" fill-rule="nonzero" />
    <path transform="matrix(0.5641967 -0.82564044 0.82564044 0.5641967 -49.60553 272.16278)"  d="M224.73953 183.07086C 224.73953 175.38086 228.44095 169.14687 233.0069 169.14687C 237.57285 169.14687 241.27426 175.38086 241.27426 183.07086C 241.27426 190.76086 237.57285 196.99486 233.0069 196.99486C 228.44095 196.99486 224.73953 190.76086 224.73953 183.07086" stroke="none" fill="#A0616A" fill-rule="nonzero" />
    <path d="M138.2611 75.6637L147.095 73.158005C 147.095 73.158005 152.2372 73.16785 155.13823 78.218605C 158.03925 83.269356 178.57936 128.30318 177.60579 130.04773C 176.63222 131.79228 175.27316 132.17776 177.01772 133.15134C 178.76227 134.12491 180.35956 133.63138 179.1705 135.09018C 177.98145 136.54898 179.6247 139.75389 179.6247 139.75389L179.6247 139.75389L156.96426 156.47281L138.26111 75.66369L138.2611 75.6637z" stroke="none" fill="#01C30C" fill-rule="nonzero" />
    <path d="M103.98781 445.9684L114.76512 445.96735L119.89195 404.39725L103.98562 404.39835L103.98781 445.9684L103.98781 445.9684" stroke="none" fill="#A0616A" fill-rule="nonzero" />
    <path d="M140.9122 445.7239C 141.24776 446.28903 141.42484 448.11313 141.42484 448.77036C 141.42484 450.79053 139.78717 452.4282 137.767 452.4282L137.767 452.4282L104.39094 452.4282C 103.01278 452.4282 101.895546 451.31097 101.895546 449.9328L101.895546 449.9328L101.895546 448.54324C 101.895546 448.54324 100.244446 444.36694 103.64377 439.2194C 103.64377 439.2194 107.86864 443.25003 114.18167 436.93698L114.18167 436.93698L116.04332 433.56448L129.51917 443.41998L136.98863 444.33942C 138.62277 444.54056 140.07162 444.3082 140.91222 445.72394L140.91222 445.72394L140.9122 445.7239z" stroke="none" fill="#2F2E41" fill-rule="nonzero" />
    <path d="M142.9945 435.4655L153.62305 437.25012L165.5665 397.104L149.87984 394.46967L142.9945 435.4655L142.9945 435.4655" stroke="none" fill="#A0616A" fill-rule="nonzero" />
    <path d="M179.44907 441.3422C 179.68634 441.9551 179.55876 443.78333 179.44986 444.4315C 179.11514 446.42374 177.22878 447.76743 175.23654 447.43274L175.23654 447.43274L142.32178 441.90286C 140.96266 441.67453 140.04599 440.38763 140.27432 439.02853L140.27432 439.02853L140.50455 437.65817C 140.50455 437.65817 139.56822 433.26602 143.77342 428.75284C 143.77342 428.75284 147.2721 433.42773 154.54384 428.24792L154.54384 428.24792L156.93852 425.23047L168.59521 437.1825L175.80911 439.32678C 177.38734 439.7959 178.85466 439.8068 179.44907 441.34222L179.44907 441.34222L179.44907 441.3422z" stroke="none" fill="#2F2E41" fill-rule="nonzero" />
    <path d="M165.08713 222.1622C 165.08713 222.1622 179.56705 239.1143 179.56705 254.65372C 179.56705 270.1931 179.92021 319.0083 179.92021 319.0083C 179.92021 319.0083 171.44417 395.21487 169.32515 401.57193C 167.20615 407.92896 166.14664 418.52402 166.14664 418.52402L166.14664 418.52402L145.66284 413.57965C 145.66284 413.57965 142.8375 341.8864 151.31354 324.9343L151.31354 324.9343L130.82974 267.01462L123.76637 430.8849L99.987274 430.8849C 99.987274 430.8849 87.743164 344.71173 94.100204 322.10892C 94.100204 322.10892 79.97346 235.93575 83.50514 230.9914C 87.036835 226.04703 165.08711 222.16217 165.08711 222.16217L165.08711 222.16217L165.08713 222.1622z" stroke="none" fill="#2F2E41" fill-rule="nonzero" />
    <path d="M112.46499 53.34756L131.5361 54.76023L137.89314 65.35529C 137.89314 65.35529 152.72623 71.71233 154.84525 80.894714C 156.96425 90.0771 157.6706 197.4404 157.6706 197.4404L157.6706 197.4404L168.26566 212.97981L167.55931 226.40022L82.79882 230.63824L82.79882 217.73508L75.02911 202.38475C 75.02911 202.38475 83.505165 79.48204 85.624176 78.7757C 87.74319 78.06937 103.988945 66.76796 103.988945 66.76796L103.988945 66.76796L112.465 53.34755L112.46499 53.34756z" stroke="none" fill="#01C30C" fill-rule="nonzero" />
    <path d="M145.11179 26.70369C 145.11179 33.33538 142.76714 38.99588 138.07782 43.685192C 133.38852 48.374504 127.72801 50.719162 121.09631 50.719162C 114.46463 50.719162 108.80412 48.374504 104.11481 43.685192C 99.42551 38.99588 97.08085 33.33538 97.08084 26.70369C 97.08085 20.072002 99.42551 14.411501 104.11481 9.722187C 108.80412 5.032875 114.46463 2.688219 121.09631 2.688219C 127.72801 2.688219 133.38852 5.032875 138.07782 9.722187C 142.76714 14.411501 145.11179 20.072002 145.11179 26.70369C 145.11179 26.98315 145.10692 27.262527 145.09715 27.541817" stroke="none" fill="#A0616A" fill-rule="nonzero" />
    <path d="M140.27905 7.38731C 139.05708 3.92153 135.66698 1.8189201 131.99292 1.9008203C 131.83711 1.9042503 131.68161 1.9028102 131.5275 1.8964802C 129.67723 1.8208302 127.901306 1.1888802 126.08701 0.81815016C 122.70568 0.12714016 119.14037 0.35849017 115.8767 1.4806302C 114.86225 1.8294501 113.84654 2.2680802 112.77379 2.2682002C 111.70105 2.2683501 110.53255 1.6801202 110.2709 0.6398202C 110.208786 1.5816902 110.14685 2.5235102 110.08491 3.4653301C 109.73575 2.7030401 109.38676 1.9407002 109.0376 1.1783702L109.0376 1.1783702L108.33853 4.21846L106.098785 1.6777201C 106.29907 2.79759 105.64619 3.92629 104.76219 4.64227C 103.87821 5.35829 102.7864 5.75435 101.7398 6.20043C 97.22284 8.12581 92.98165 11.534679 91.680145 16.269299C 90.85782 19.2606 91.28795 22.435287 91.7237 25.50676C 92.10881 28.22209 92.52761 31.03126 94.00356 33.34266C 94.94969 34.82441 96.31345 36.071228 96.88953 37.73229C 97.426476 39.280518 97.22308 41.05312 97.9871 42.50292C 98.754326 43.959137 100.33823 44.78302 101.8884 45.3363C 103.438446 45.88979 105.08632 46.28118 106.42129 47.24406C 107.75612 48.20708 109.30546 50.98101 112.21393 50.83173L112.21393 50.83173L113.15264 49.06818C 114.118324 48.28138 110.5446 48.90515 110.50731 47.66011C 110.47002 46.41507 114.80729 45.64586 114.19261 44.56245C 113.24991 42.90115 111.9745 41.45527 110.91221 39.867622C 109.66989 38.01092 108.6929 35.841553 109.12157 33.5754C 109.28828 32.69387 109.70084 31.861162 110.32937 31.220821C 112.14099 29.37482 114.16101 30.18621 116.12413 30.450262C 117.47718 30.632433 119.0932 30.422132 119.79585 29.251442C 120.617714 27.881811 119.70165 26.139452 119.81371 24.546103C 119.93248 22.857763 121.21157 21.473331 122.60358 20.510782C 123.995766 19.548262 125.576416 18.846992 126.82873 17.708563C 128.08101 16.570044 128.97311 14.791423 128.42715 13.189423C 134.36336 10.718002 135.27213 10.484253 141.52324 11.991413C 141.2253 10.428193 140.80818 8.888003 140.27908 7.387323L140.27908 7.387323L140.27905 7.38731z" stroke="none" fill="#2F2E41" fill-rule="nonzero" />
	<g>
        <path d="M38.89356 314.54276L38.89356 241.64774C 38.89356 239.64856 39.745728 237.73483 41.23171 236.39728C 42.717567 235.05995 44.70964 234.41278 46.698418 234.62251C 65.12082 232.14412 82.47166 233.32286 98.19626 240.05264C 99.97742 240.05264 101.42649 241.5017 101.42649 243.28287L101.42649 243.28287L101.42649 316.4327C 101.42649 318.21375 99.97742 319.66293 98.19626 319.66293C 80.887054 315.60342 62.630497 316.66022 44.013557 319.66293C 41.190376 319.66293 38.89356 317.3661 38.89356 314.5428L38.89356 314.5428L38.89356 314.54276z" stroke="none" fill="#E6E6E6" fill-rule="nonzero" />
        <path d="M38.89356 321.03207L38.89356 247.36642C 38.89356 243.47116 42.06254 240.30214 45.957817 240.30214C 63.57406 235.69293 80.987206 235.685 98.196266 240.30214C 99.977425 240.30214 101.4265 241.75117 101.4265 243.53233L101.4265 243.53233L101.4265 315.93347C 101.4265 317.7119 99.98172 319.15942 98.204216 319.1637C 81.23573 316.2115 63.059086 319.08667 44.013557 326.15198C 41.190376 326.15198 38.89356 323.85513 38.89356 321.03207z" stroke="none" fill="#F2F2F2" fill-rule="nonzero" />
        <path d="M79.57216 270.7446L63.0995 270.7446C 57.18348 270.7446 52.3705 265.9321 52.3705 260.01608C 52.3705 254.10007 57.183487 249.28659 63.0995 249.28659L63.0995 249.28659L79.57216 249.28659C 85.48866 249.28659 90.30165 254.10007 90.30165 260.01608C 90.30165 265.9321 85.48866 270.7446 79.57216 270.7446z" stroke="none" fill="#E6E6E6" fill-rule="nonzero" />
	</g>
    <path d="M94.66968 126.05669L94.04003 164.0889C 94.04003 164.0889 92.02762 193.72885 87.02999 227.08472L87.02999 227.08472L75.117584 227.84468C 75.117584 227.84468 76.58325 175.76364 76.049286 162.05945L76.049286 162.05945L76.89169 131.6213L94.66968 126.05668L94.66968 126.05669z" stroke="none" fill="#A0616A" fill-rule="nonzero" />
    <path transform="matrix(0.9994228 -0.033971187 0.033971187 0.9994228 -7.99527 2.91297)"  d="M73.45875 236.74329C 73.45875 229.05328 77.16018 222.81929 81.72612 222.81929C 86.29206 222.81929 89.99349 229.05328 89.99349 236.74329C 89.99349 244.43329 86.29206 250.66728 81.72612 250.66728C 77.16018 250.66728 73.45875 244.43329 73.45875 236.74329" stroke="none" fill="#A0616A" fill-rule="nonzero" />
    <path d="M94.48458 77.63734L85.30828 77.971535C 85.30828 77.971535 80.41861 79.563225 79.21253 85.261604C 78.006454 90.95998 69.55216 149.93275 71.01532 151.29309C 72.47847 152.65341 73.89021 152.602 72.52989 154.06516C 71.16957 155.5283 69.49791 155.55023 71.07817 156.57237C 72.65843 157.5945 72.0811 161.14957 72.0811 161.14957L72.0811 161.14957L97.46062 159.35147L94.48457 77.63735L94.48458 77.63734z" stroke="none" fill="#01C30C" fill-rule="nonzero" />
    <path d="M699.9159 417.42822L455.76404 417.42822C 454.34753 417.42822 452.9447 417.21143 451.5946 416.78467L451.5946 416.78467L451.45105 416.72705C 375.00134 378.7329 309.45544 357.99658 251.06824 353.33154L251.06824 353.33154L250.84607 353.2876C 245.07019 351.46045 241.18982 346.1626 241.18982 340.10498L241.18982 340.10498L241.18982 13.83836C 241.18982 9.38328 243.25134 5.31785 246.8451 2.6850395C 250.43933 0.052229404 254.9364 -0.68654037 259.1859 0.65573955L259.1859 0.65573955L452.19763 61.706028C 453.3534 62.071747 454.5536 62.25681 455.76404 62.25681L455.76404 62.25681L699.9159 62.25681C 707.5399 62.25681 713.74207 68.45945 713.74207 76.08298L713.74207 76.08298L713.74207 403.60205C 713.74207 411.22607 707.5399 417.42822 699.9159 417.42822zM452.2699 414.90088C 453.4027 415.2505 454.578 415.42822 455.76404 415.42822L455.76404 415.42822L699.9159 415.42822C 706.4369 415.42822 711.74207 410.12354 711.74207 403.60205L711.74207 403.60205L711.74207 76.08299C 711.74207 69.562 706.4369 64.25682 699.9159 64.25682L699.9159 64.25682L455.76404 64.25682C 454.3485 64.25682 452.94617 64.04051 451.5946 63.61327L451.5946 63.61327L258.58243 2.56297C 254.94815 1.4125799 251.10147 2.04637 248.02725 4.29832C 244.95303 6.55076 243.18985 10.027809 243.18985 13.83836L243.18985 13.83836L243.18985 340.10495C 243.18985 345.24948 246.46133 349.7524 251.34366 351.34714C 309.9423 356.05026 375.66934 376.83932 452.26993 414.90085z" stroke="none" fill="#3F3D56" fill-rule="nonzero" />
    <path d="M462.28363 402.61243C 528.85376 379.05588 603.1195 381.75967 682.0153 400.26343C 691.9198 402.58636 701.4158 395.12854 701.4158 384.95532L701.4158 384.95532L701.4158 86.84158C 701.4158 79.60226 696.4803 73.272545 689.4482 71.552925C 606.21954 51.200356 528.4794 47.455803 459.9693 71.640465C 454.9503 73.41222 449.37915 72.452286 445.144 69.22842C 387.41275 25.28221 328.3286 3.24799 267.48026 9.7905C 259.5201 10.64639 253.51604 17.43021 253.51604 25.436218L253.51604 25.436218L253.51604 326.80115C 253.51604 334.87033 259.62137 341.61734 267.64728 342.4521C 333.14124 349.26373 393.32306 369.90784 449.2921 401.52173C 453.25513 403.76022 457.99286 404.1308 462.28363 402.61246L462.28363 402.61246L462.28363 402.61243z" stroke="none" fill="#F2F2F2" fill-rule="nonzero" />
    <path d="M460.1459 385.895C 455.6122 385.895 451.14688 384.6489 447.21182 382.20554C 400.20743 353.01315 348.99698 335.95944 295.0043 331.51804C 282.3461 330.47604 272.43008 319.67917 272.43008 306.93698L272.43008 306.93698L272.43008 49.52196C 272.43008 36.31005 282.67618 25.484362 295.75674 24.876451C 335.0673 23.043442 382.79874 40.574203 445.96182 80.02684C 451.3046 83.36327 457.80167 84.35399 463.788 82.74852C 523.8163 66.63524 588.8861 66.164536 662.7196 81.30956C 674.182 83.661125 682.50183 93.83495 682.50183 105.50145L682.50183 105.50145L682.50183 356.7622C 682.50183 364.34424 679.0917 371.3872 673.1454 376.0835C 667.15515 380.81494 659.44763 382.51123 651.9979 380.7378C 582.1522 364.11377 522.17615 365.31494 468.63904 384.4126C 465.85876 385.4048 462.98816 385.89502 460.14587 385.89502L460.14587 385.89502L460.1459 385.895zM301.36856 26.74754C 299.50772 26.74754 297.67227 26.78953 295.84952 26.874489C 283.83878 27.432598 274.43008 37.38035 274.43008 49.52195L274.43008 49.52195L274.43008 306.937C 274.43008 318.646 283.53946 328.56787 295.16837 329.52393C 349.48038 333.99268 400.99014 351.14502 448.267 380.50635C 454.14932 384.16064 461.33 384.89697 467.9672 382.5298L467.9672 382.5298L468.30313 383.4712L467.9672 382.5298C 521.8778 363.29736 582.227 362.0747 652.4608 378.79248C 659.3119 380.42236 666.3983 378.86475 671.90564 374.51416C 677.3685 370.19873 680.50183 363.729 680.50183 356.7622L680.50183 356.7622L680.50183 105.50145C 680.50183 94.78026 672.8544 85.43016 662.31726 83.26854C 588.79626 68.18651 524.02673 68.64842 464.30652 84.68016C 457.78455 86.429184 450.71375 85.35252 444.90222 81.72313C 385.0443 44.33495 339.20642 26.74754 301.36853 26.74754z" stroke="none" fill="#FFFFFF" fill-rule="nonzero" />
    <path transform="matrix(0.99995726 -0.009239119 0.009239119 0.99995726 -2.15024 4.22302)"  d="M454.9962 84.24502L456.99628 84.24502L456.99628 385.43463L454.9962 385.43463z" stroke="none" fill="#FFFFFF" fill-rule="nonzero" />
    <path transform="matrix(0.31413245 -0.9493792 0.9493792 0.31413245 164.02606 404.01147)"  d="M360.63 14.73326L362.6296 14.73326L362.6296 162.23303L360.63 162.23303z" stroke="none" fill="#3F3D56" fill-rule="nonzero" />
    <path transform="matrix(0.31413245 -0.9493792 0.9493792 0.31413245 128.8346 429.43512)"  d="M360.63 51.80113L362.6296 51.80113L362.6296 199.3009L360.63 199.3009z" stroke="none" fill="#3F3D56" fill-rule="nonzero" />
    <path transform="matrix(0.31413245 -0.9493792 0.9493792 0.31413245 93.6436 454.85843)"  d="M360.63 88.86851L362.6296 88.86851L362.6296 236.36829L360.63 236.36829z" stroke="none" fill="#3F3D56" fill-rule="nonzero" />
    <path transform="matrix(0.31413245 -0.9493792 0.9493792 0.31413245 58.4526 480.28174)"  d="M360.63 125.93589L362.6296 125.93589L362.6296 273.43567L360.63 273.43567z" stroke="none" fill="#3F3D56" fill-rule="nonzero" />
    <path d="M489.30704 112.70995L657.1405 112.70995L657.1405 114.70995L489.30704 114.70995z" stroke="none" fill="#3F3D56" fill-rule="nonzero" />
    <path d="M489.30704 147.71825L657.1405 147.71825L657.1405 149.71825L489.30704 149.71825z" stroke="none" fill="#3F3D56" fill-rule="nonzero" />
    <path d="M489.30704 182.72606L657.1405 182.72606L657.1405 184.72606L489.30704 184.72606z" stroke="none" fill="#3F3D56" fill-rule="nonzero" />
    <path d="M489.30704 217.73485L657.1405 217.73485L657.1405 219.73485L489.30704 219.73485z" stroke="none" fill="#3F3D56" fill-rule="nonzero" />
    <path d="M489.30704 252.74266L657.1405 252.74266L657.1405 254.74266L489.30704 254.74266z" stroke="none" fill="#3F3D56" fill-rule="nonzero" />
    <path d="M489.30704 287.75146L657.1405 287.75146L657.1405 289.75146L489.30704 289.75146z" stroke="none" fill="#3F3D56" fill-rule="nonzero" />
    <path d="M54.25887 437.54465C 52.192947 437.674 51.05119 435.10727 52.61419 433.61133L52.61419 433.61133L52.769688 432.99313C 52.749218 432.94363 52.728638 432.89417 52.70791 432.84476C 50.618668 427.86295 43.537987 427.89734 41.46652 432.88654C 39.62793 437.3147 37.287098 441.75043 36.710728 446.43246C 36.452347 448.49927 36.568596 450.60483 37.027206 452.63293C 32.719135 443.22235 30.452057 432.94632 30.452057 422.61215C 30.452057 420.01562 30.594187 417.41913 30.884808 414.8292C 31.123808 412.71066 31.453197 410.6051 31.879519 408.51886C 34.18527 397.24167 39.17804 386.5006 46.37964 377.52924C 49.84161 375.63675 52.7287 372.6786 54.472588 369.13272C 55.09908 367.85382 55.589977 366.4781 55.8225 365.07654C 55.42852 365.1282 54.336937 359.12787 54.634087 358.75974C 54.085026 357.92657 53.102306 357.5124 52.502647 356.6994C 49.52033 352.656 45.411446 353.362 43.266438 358.85666C 38.684196 361.1693 38.639847 365.00473 41.45149 368.69348C 43.24027 371.0403 43.48605 374.21582 45.05557 376.72827C 44.89406 376.93497 44.726128 377.13522 44.56467 377.34192C 41.60361 381.1398 39.04259 385.22192 36.88363 389.5105C 37.493797 384.7443 36.59296 379.0023 35.05722 375.3009C 33.30903 371.0836 30.03231 367.53174 27.14677 363.8859C 23.68076 359.50665 16.5734 361.41785 15.962761 366.9692C 15.956851 367.02295 15.951101 367.07666 15.945451 367.1304C 16.37405 367.3722 16.793941 367.62906 17.20409 367.90033C 19.54358 369.44757 18.73505 373.0742 15.96302 373.50208L15.96302 373.50208L15.90025 373.51175C 16.05528 375.05542 16.320091 376.58618 16.70759 378.09113C 13.0058 392.40692 20.9977 397.62103 32.40906 397.85526C 32.660973 397.9844 32.90644 398.1136 33.15835 398.23636C 32.002182 401.4916 31.078531 404.83084 30.393942 408.21527C 29.780352 411.2057 29.354033 414.22845 29.115091 417.26416C 28.817942 421.0942 28.843801 424.94376 29.16677 428.7674L29.16677 428.7674L29.14738 428.63177C 28.32714 424.42062 26.04067 420.48715 22.720781 417.7615C 17.775171 413.69885 10.787961 412.20282 5.4525223 408.93726C 2.8841922 407.3653 -0.4069276 409.3967 0.041312218 412.37433L0.041312218 412.37433L0.06313222 412.51694C 0.85756224 412.8398 1.6326022 413.21448 2.3818424 413.63428C 2.8104424 413.87613 3.2303224 414.13293 3.6404824 414.4042C 5.9799724 415.9515 5.1714425 419.57812 2.3994124 420.006L2.3994124 420.006L2.3365924 420.01566C 2.2913923 420.02213 2.2526224 420.0286 2.2074823 420.0351C 3.5703025 423.2709 5.469162 426.27432 7.846022 428.86432C 10.160652 441.36145 20.102053 442.54715 30.736242 438.90787L30.736242 438.90787L30.742722 438.90787C 31.905312 443.97165 33.604 448.91913 35.78712 453.63406L35.78712 453.63406L53.807312 453.63406C 53.87194 453.43384 53.930054 453.22714 53.9882 453.0269C 52.3218 453.1303 50.64249 453.0334 49.00191 452.72986C 50.33892 451.08926 51.675873 449.43576 53.012882 447.79523C 53.045174 447.76294 53.07104 447.73062 53.09685 447.69833C 53.77502 446.85873 54.45967 446.0255 55.13784 445.18588L55.13784 445.18588L55.1382 445.18488C 55.18065 442.60733 54.871677 440.03827 54.259438 437.54504L54.259438 437.54504L54.25887 437.5447L54.25887 437.54465z" stroke="none" fill="#F2F2F2" fill-rule="nonzero" />
    <path d="M255.81023 453.6876C 255.81023 454.34763 255.2802 454.8776 254.62016 454.8776L254.62016 454.8776L1.33018 454.8776C 0.67021006 454.8776 0.14017999 454.34763 0.14017999 453.6876C 0.14017999 453.02762 0.67021 452.4976 1.33018 452.4976L1.33018 452.4976L254.62016 452.4976C 255.2802 452.4976 255.81023 453.02762 255.81023 453.6876z" stroke="none" fill="#CCCCCC" fill-rule="nonzero" />
	<g>
        <path d="M687.1898 367.42822C 687.1898 373.7795 684.94434 379.20068 680.45325 383.69168C 675.9623 388.18274 670.54114 390.42822 664.1898 390.42822C 657.83856 390.42822 652.4174 388.18274 647.9264 383.69168C 643.43536 379.20068 641.1898 373.7795 641.1898 367.42822C 641.1898 361.07697 643.43536 355.6558 647.9264 351.16476C 652.4174 346.67374 657.83856 344.42822 664.1898 344.42822C 670.54114 344.42822 675.9623 346.67374 680.45325 351.16476C 684.94434 355.6558 687.1898 361.07697 687.1898 367.42822C 687.1898 367.69586 687.1852 367.96344 687.1758 368.2309" stroke="none" fill="#01C30C" fill-rule="nonzero" />
        <path d="M674.9606 366.5622L660.6899 358.32172C 660.0232 357.93677 659.1898 358.4179 659.1898 359.18774L659.1898 359.18774L659.1898 366.42822L654.909 366.42822C 654.3567 366.42822 653.909 366.87592 653.909 367.42822C 653.909 367.98047 654.3567 368.42822 654.909 368.42822L654.909 368.42822L659.1898 368.42822L659.1898 375.6687C 659.1898 376.43854 660.0232 376.91962 660.6899 376.53467L660.6899 376.53467L674.9606 368.2942C 675.62714 367.9093 675.62714 366.94714 674.9606 366.5622z" stroke="none" fill="#FFFFFF" fill-rule="nonzero" />
	</g>
	<g>
        <path d="M336.66833 302.59537C 337.56415 292.34576 341.81964 282.55414 348.6302 274.8487C 355.26462 267.3425 364.3327 262.19345 374.11182 260.09576C 379.57077 258.92477 385.22574 258.6963 390.75406 259.48508C 392.07745 259.6739 392.04214 261.77505 390.70477 261.58426C 381.29584 260.24176 371.57098 261.88202 363.11652 266.2266C 354.45078 270.67975 347.51498 277.9228 343.23047 286.65683C 340.78027 291.65152 339.25192 297.1027 338.76755 302.64465C 338.6503 303.98615 336.55045 303.94473 336.66837 302.59537L336.66837 302.59537L336.66833 302.59537z" stroke="none" fill="#FFFFFF" fill-rule="nonzero" />
        <path d="M388.42593 251.05746L404.58832 259.0316C 405.17618 259.32162 405.27277 260.27905 404.77325 260.69196L404.77325 260.69196L389.47287 273.33957C 388.43732 274.19556 386.97974 272.68307 388.0234 271.82037L388.0234 271.82037L403.3238 259.17276L403.50873 260.83313L387.34634 252.859C 386.13263 252.26018 387.22195 250.46341 388.42593 251.05743L388.42593 251.05743L388.42593 251.05746z" stroke="none" fill="#FFFFFF" fill-rule="nonzero" />
	</g>
</g>
</svg>